# xmcd CD database file
# Copyright (C) 1993-1998 Ti Kan
# 
# Track frame offsets:
#     183
#     14135
#     31715
#     47460
#     68715
#     84048
#     97565
#     109648
#     120553
#     132435
#     145848
#     157463
#     174073
#     182423
#     197373
#     209335
#     223168
#     236410
#     246573
#     257690
#     271983
#     284815
#     298743
#     308390
# 
# Disc length: 4184 seconds
# 
# Revision: 1
# Processed by: cddbd v1.4b41PL1 Copyright (c) Steve Scherf et al.
# Submitted via: DiscPlay 4.0.4
# 
DISCID=51105618
DTITLE=The Fabulous Thunderbirds - The Fabulous Thunderbirds/ What's The Wor
DYEAR=1900
DGENRE=
TTITLE0=Wait On Time
TTITLE1=Scratch My Back
TTITLE2=Rich Woman
TTITLE3=Full-Time Lover
TTITLE4=Pocket Rocket
TTITLE5=She's Tuff
TTITLE6=Marked Deck
TTITLE7=Walkin' To My Baby
TTITLE8=Rock With Me
TTITLE9=C-Boy's Blues
TTITLE10=Let Me In
TTITLE11=Runnin' Shoes
TTITLE12=You Ain't Nothin' But Fine
TTITLE13=Low-Down Woman
TTITLE14=Extra Jimmies
TTITLE15=Sugar-Coated Love
TTITLE16=Last Call For Alcohol
TTITLE17=The Crawl
TTITLE18=Jumpin' Bad
TTITLE19=Learn To Treat Me Right
TTITLE20=I'm A Good Man
TTITLE21=Dirty Work
TTITLE22=That's Enough Of That Stuff
TTITLE23=Los Fabuloso Thunderbirds
EXTD=
EXTT0=\n
EXTT1=
EXTT2=
EXTT3=
EXTT4=
EXTT5=
EXTT6=
EXTT7=
EXTT8=
EXTT9=
EXTT10=
EXTT11=
EXTT12=
EXTT13=
EXTT14=
EXTT15=
EXTT16=
EXTT17=
EXTT18=
EXTT19=
EXTT20=
EXTT21=
EXTT22=
EXTT23=
PLAYORDER=
